<?xml version="1.0" encoding="UTF-8"?>
<svg width="26px" height="27px" viewBox="0 0 26 27" version="1.1" xmlns="http://www.w3.org/2000/svg" xmlns:xlink="http://www.w3.org/1999/xlink">
    <!-- Generator: Sketch 52.2 (67145) - http://www.bohemiancoding.com/sketch -->
    <title>layers</title>
    <desc>Created with Sketch.</desc>
    <g id="Page-1" stroke="none" stroke-width="1" fill="none" fill-rule="evenodd">
        <g id="Artboard" transform="translate(-20.000000, -19.000000)" fill="#FFFFFF" fill-rule="nonzero">
            <g id="layers" transform="translate(18.000000, 18.000000)">
                <path d="M27.4395307,13.5663015 L23.2638588,11.4632425 L27.4395307,9.35998357 C28.1864263,8.98389488 28.1872198,7.90638685 27.4395307,7.52969869 L15.4542871,1.49309586 C15.1682251,1.34921496 14.8317749,1.34921496 14.5457129,1.49309586 L2.56046927,7.52969869 C1.81357372,7.90598721 1.81278021,8.98349523 2.56046927,9.35998357 L6.73614116,11.4632425 L2.56046927,13.5663015 C1.81357372,13.94259 1.81278021,15.0198982 2.56046927,15.3965864 L6.73614116,17.4998453 L2.56046927,19.6029044 C1.81357372,19.9791929 1.81278021,21.0565011 2.56046927,21.4331892 L14.5457129,27.4697921 C14.8311798,27.6134731 15.16763,27.6140726 15.4542871,27.4697921 L27.4395307,21.4331892 C28.1864263,21.0569007 28.1872198,19.9795925 27.4395307,19.6029044 L23.2638588,17.4998453 L27.4395307,15.3965864 C28.1864263,15.0204977 28.1872198,13.9429897 27.4395307,13.5663015 Z M15,3.55219131 L24.7140066,8.44494104 L15,13.3374909 L5.28599336,8.44494104 L15,3.55219131 Z M24.7140066,20.5181467 L15,25.4106966 L5.28599336,20.5181467 L9.00737819,18.6436984 L14.5457129,21.4331892 C14.8313782,21.5768703 15.16763,21.5774698 15.4542871,21.4331892 L20.9926218,18.6436984 L24.7140066,20.5181467 Z M15,19.3740938 L5.28599336,14.4815439 L9.00737819,12.6070956 L14.5457129,15.3965864 C14.8313782,15.5402674 15.16763,15.5408669 15.4542871,15.3965864 L20.9926218,12.6070956 L24.7140066,14.4815439 L15,19.3740938 Z" id="Shape"></path>
            </g>
        </g>
    </g>
</svg>