<svg xmlns="http://www.w3.org/2000/svg" width="512pt" height="512pt" fill="#fff" viewBox="0 0 512 512">
    <path d="m512 256c0 29.265625-4.902344 57.976562-14.570312 85.332031-5.171876 14.621094-24.339844 18.054688-34.253907 6.101563l-65.238281-78.667969c-7.050781-8.5-5.871094-21.109375 2.628906-28.160156s21.109375-5.875 28.164063 2.628906l40.3125 48.613281c1.96875-11.78125 2.957031-23.753906 2.957031-35.847656 0-119.394531-96.621094-216-216-216-119.394531 0-216 96.621094-216 216 0 12.09375.988281 24.066406 2.957031 35.847656l40.316407-48.613281c7.050781-8.503906 19.65625-9.679687 28.160156-2.628906s9.679687 19.660156 2.628906 28.160156l-65.238281 78.667969c-9.898438 11.941406-29.082031 8.523437-34.253907-6.101563-9.667968-27.355469-14.570312-56.066406-14.570312-85.332031 0-141.503906 114.515625-256 256-256 141.503906 0 256 114.515625 256 256zm-65.199219 170.683594c-102.128906 114.089844-280.179687 113.300781-381.601562 0-6.878907-7.6875-6.785157-19.355469.222656-26.925782 32.386719-36.085937 74.089844-61.886718 119.820313-75.066406-60.332032-62.128906-16.515626-167.359375 70.757812-167.359375 87.246094 0 131.101562 105.214844 70.757812 167.359375 45.730469 13.179688 87.433594 38.976563 119.820313 75.066406 7.007813 7.570313 7.101563 19.238282.222656 26.925782zm-190.824219-112.015625c32.503907-.015625 58.691407-26.425781 58.691407-58.667969 0-32.347656-26.320313-58.667969-58.667969-58.667969s-58.667969 26.320313-58.667969 58.667969c0 32.339844 26.304688 58.652344 58.644531 58.667969zm148 98.675781c-83.21875-78.199219-212.660156-78.269531-295.949218 0 83.222656 78.195312 212.777344 78.140625 295.949218 0zm0 0"/>
</svg>
